<?xml version="1.0" encoding="UTF-8" standalone="no"?>
<!-- Created with Inkscape (http://www.inkscape.org/) -->

<svg
   xmlns:dc="http://purl.org/dc/elements/1.1/"
   xmlns:cc="http://creativecommons.org/ns#"
   xmlns:rdf="http://www.w3.org/1999/02/22-rdf-syntax-ns#"
   xmlns:svg="http://www.w3.org/2000/svg"
   xmlns="http://www.w3.org/2000/svg"
   xmlns:sodipodi="http://sodipodi.sourceforge.net/DTD/sodipodi-0.dtd"
   xmlns:inkscape="http://www.inkscape.org/namespaces/inkscape"
   width="100mm"
   height="100mm"
   viewBox="0 0 354.33071 354.33071"
   id="svg6856"
   version="1.1"
   inkscape:version="0.91 r13725"
   sodipodi:docname="Inkscape_Simon_game.svg">
  <defs
     id="defs6858" />
  <sodipodi:namedview
     id="base"
     pagecolor="#ffffff"
     bordercolor="#666666"
     borderopacity="1.0"
     inkscape:pageopacity="0.0"
     inkscape:pageshadow="2"
     inkscape:zoom="0.97785011"
     inkscape:cx="169.93865"
     inkscape:cy="153.41146"
     inkscape:document-units="px"
     inkscape:current-layer="layer1"
     showgrid="false"
     inkscape:snap-text-baseline="true"
     inkscape:window-width="1280"
     inkscape:window-height="659"
     inkscape:window-x="-8"
     inkscape:window-y="-8"
     inkscape:window-maximized="1" />
  <metadata
     id="metadata6861">
    <rdf:RDF>
      <cc:Work
         rdf:about="">
        <dc:format>image/svg+xml</dc:format>
        <dc:type
           rdf:resource="http://purl.org/dc/dcmitype/StillImage" />
        <dc:title></dc:title>
      </cc:Work>
    </rdf:RDF>
  </metadata>
  <g
     inkscape:label="Layer 1"
     inkscape:groupmode="layer"
     id="layer1"
     transform="translate(0,-698.0315)">
    <ellipse
       style="fill:#000000"
       id="path7410"
       cx="174.05785"
       cy="872.28156"
       rx="161.25662"
       ry="159.44882" />
    <path
       inkscape:connector-curvature="0"
       id="path7453"
       d="m 252.9307,867.21621 c -6.71459,-0.2263 -7.16094,-0.65651 -8.75938,-8.44336 -1.46694,-7.14632 -3.07585,-12.1092 -5.79072,-17.86236 -9.87194,-20.91985 -30.08124,-36.46552 -52.21753,-40.16752 -2.69139,-0.45009 -4.87629,-1.21817 -5.78818,-2.03476 l -1.46484,-1.31175 -0.15686,-35.21487 -0.15685,-35.2149 1.84226,-1.60471 c 1.75884,-1.53202 2.08296,-1.58655 7.15915,-1.20399 16.25545,1.22504 34.02862,6.3256 50.77824,14.57238 21.78245,10.72472 38.93847,25.20022 53.83384,45.42271 14.66346,19.90762 23.92304,43.78964 27.13356,69.98196 1.1773,9.60488 1.18472,9.42804 -0.47591,11.3186 l -1.40122,1.5952 -29.58101,0.17419 c -16.26955,0.096 -31.9991,0.0926 -34.95455,-0.007 z"
       style="fill:#ffffff" />
    <path
       inkscape:connector-curvature="0"
       id="path7453-0"
       d="m 95.118139,867.21621 c 6.714581,-0.2263 7.160931,-0.65651 8.759361,-8.44336 1.46696,-7.14632 3.07587,-12.1092 5.79074,-17.86236 9.87194,-20.91985 30.08124,-36.46552 52.21753,-40.16752 2.69138,-0.45009 4.87628,-1.21817 5.78817,-2.03476 l 1.46484,-1.31175 0.15686,-35.21487 0.15686,-35.2149 -1.84227,-1.60471 c -1.75884,-1.53202 -2.08296,-1.58655 -7.15915,-1.20399 -16.25545,1.22504 -34.02862,6.3256 -50.77824,14.57238 -21.782455,10.72472 -38.938465,25.20022 -53.83384,45.42271 -14.663466,19.90762 -23.923031,43.78964 -27.13356,69.98196 -1.17729,9.60488 -1.18472,9.42804 0.475914,11.3186 l 1.401216,1.5952 29.581011,0.17419 c 16.269548,0.096 31.999101,0.0926 34.954558,-0.007 z"
       style="fill:#ffffff" />
    <path
       inkscape:connector-curvature="0"
       id="path7453-4"
       d="m 252.9307,877.34686 c -6.71459,0.22631 -7.16094,0.65653 -8.75937,8.44335 -1.46695,7.14634 -3.07586,12.10922 -5.79073,17.86239 -9.87194,20.91985 -30.08124,36.46551 -52.21753,40.16751 -2.69139,0.4501 -4.87628,1.21816 -5.78817,2.03476 l -1.46484,1.31175 -0.15686,35.21484 -0.15686,35.21504 1.84227,1.6045 c 1.75884,1.5321 2.08296,1.5866 7.15915,1.2041 16.25544,-1.225 34.02861,-6.3256 50.77824,-14.5723 21.78245,-10.72481 38.93846,-25.20032 53.83384,-45.4228 14.66346,-19.90764 23.92303,-43.78963 27.13355,-69.98197 1.1773,-9.60488 1.18472,-9.42804 -0.47591,-11.31858 l -1.40122,-1.59521 -29.581,-0.17421 c -16.26955,-0.0959 -31.99911,-0.0926 -34.95456,0.007 z"
       style="fill:#ffffff" />
    <path
       inkscape:connector-curvature="0"
       id="path7453-0-4"
       d="m 95.118139,877.34686 c 6.714581,0.22631 7.160931,0.65653 8.759371,8.44335 1.46695,7.14634 3.07586,12.10922 5.79073,17.86239 9.87195,20.91985 30.08125,36.46551 52.21754,40.16751 2.69137,0.4501 4.87628,1.21816 5.78816,2.03476 l 1.46484,1.31175 0.15687,35.21484 0.15685,35.21504 -1.84226,1.6045 c -1.75884,1.5321 -2.08296,1.5866 -7.15916,1.2041 -16.25544,-1.225 -34.02862,-6.3256 -50.77823,-14.5723 C 87.890385,995.10799 70.734375,980.63248 55.839001,960.41 41.175535,940.50236 31.915969,916.62037 28.70544,890.42803 c -1.17729,-9.60488 -1.18472,-9.42804 0.475915,-11.31858 l 1.401215,-1.59521 29.581011,-0.17421 c 16.269549,-0.0959 31.999102,-0.0926 34.954558,0.007 z"
       style="fill:#ffffff" />
  </g>
</svg>
