<?xml version="1.0" encoding="UTF-8" standalone="no"?>
<!-- Created with Inkscape (http://www.inkscape.org/) -->

<svg
   xmlns:dc="http://purl.org/dc/elements/1.1/"
   xmlns:cc="http://creativecommons.org/ns#"
   xmlns:rdf="http://www.w3.org/1999/02/22-rdf-syntax-ns#"
   xmlns:svg="http://www.w3.org/2000/svg"
   xmlns="http://www.w3.org/2000/svg"
   xmlns:sodipodi="http://sodipodi.sourceforge.net/DTD/sodipodi-0.dtd"
   xmlns:inkscape="http://www.inkscape.org/namespaces/inkscape"
   width="2400mm"
   height="1200mm"
   viewBox="0 0 8503.937 4251.9685"
   id="svg4147"
   version="1.1"
   inkscape:version="0.91 r13725"
   sodipodi:docname="07_mystool.svg">
  <defs
     id="defs4149" />
  <sodipodi:namedview
     id="base"
     pagecolor="#ffffff"
     bordercolor="#666666"
     borderopacity="1.0"
     inkscape:pageopacity="0.0"
     inkscape:pageshadow="2"
     inkscape:zoom="0.12622249"
     inkscape:cx="2650.6725"
     inkscape:cy="2502.7745"
     inkscape:document-units="mm"
     inkscape:current-layer="layer1"
     showgrid="true"
     objecttolerance="5"
     gridtolerance="5"
     guidetolerance="5"
     inkscape:window-width="1280"
     inkscape:window-height="659"
     inkscape:window-x="-8"
     inkscape:window-y="-8"
     inkscape:window-maximized="1">
    <inkscape:grid
       type="xygrid"
       id="grid4695"
       empspacing="10" />
  </sodipodi:namedview>
  <metadata
     id="metadata4152">
    <rdf:RDF>
      <cc:Work
         rdf:about="">
        <dc:format>image/svg+xml</dc:format>
        <dc:type
           rdf:resource="http://purl.org/dc/dcmitype/StillImage" />
        <dc:title></dc:title>
      </cc:Work>
    </rdf:RDF>
  </metadata>
  <g
     inkscape:label="Layer 1"
     inkscape:groupmode="layer"
     id="layer1"
     transform="translate(0,3199.6063)">
    <rect
       style="opacity:1;fill:#000000;fill-opacity:0;fill-rule:evenodd;stroke:#000000;stroke-width:3.31842256;stroke-linecap:square;stroke-linejoin:bevel;stroke-miterlimit:22.92558479;stroke-dasharray:none;stroke-dashoffset:0;stroke-opacity:1"
       id="rect4697"
       width="1484.8705"
       height="1201.406"
       x="318.6673"
       y="-3107.7114"
       rx="82.492813"
       ry="83.430977" />
    <path
       style="opacity:1;fill:#0000ff;fill-opacity:1;fill-rule:evenodd;stroke:#000000;stroke-width:3.03630257;stroke-linecap:square;stroke-linejoin:bevel;stroke-miterlimit:22.92558479;stroke-dasharray:none;stroke-dashoffset:0;stroke-opacity:1"
       d="m 2579.9298,-3020.7271 0,40.1816 c -108.9861,0 -217.9731,0.029 -326.9589,0.1445 -22.4279,-1.6577 -43.6887,10.0436 -58.7207,25.7618 -16.4066,17.0444 -24.5811,40.1681 -26.5606,63.3457 -4.0987,54.8168 -8.0092,109.7851 -12.3203,164.6425 -31.1208,419.7465 -63.4279,839.4177 -93.8067,1259.211 0.3758,29.7305 17.0683,61.4941 46.2208,73.1113 19.887,7.0992 40.9746,4.6011 61.8398,4.2207 l 69.2187,-791.1777 37.3633,0 -69.248,791.5117 c 29.5283,0.1031 59.0849,0.5222 88.539,-0.6348 15.7482,-8.0572 26.9507,-23.0967 34.0743,-38.8144 7.6615,-23.1016 4.8409,-47.7273 8.5722,-71.625 33.2694,-394.2368 65.89,-788.5277 99.6328,-1182.7246 4.6722,-25.3307 31.9525,-42.8549 57.1973,-38.9024 215.7167,0.3273 431.4567,-0.6859 647.1582,0.5488 25.0865,3.4265 43.6701,28.4025 41.9883,53.0547 34.6482,410.1002 68.4575,820.2838 103.7031,1230.3262 4.4882,21.4302 21.1092,38.7681 40.5703,48.1348 14.735,2.6895 29.759,-0.3733 44.6153,0.7031 13.0514,-0.1061 26.1219,-0.013 39.1953,0.086 l -69.2617,-791.664 37.3632,0 69.2715,791.7754 c 17.8218,-0.091 35.6238,-0.4988 53.3633,-1.75 33.723,-7.7761 56.0441,-42.3218 55.5117,-75.4571 0.4035,-29.0295 -4.6696,-57.8093 -5.6269,-86.8535 -33.9047,-449.6497 -66.8599,-899.3787 -101.4473,-1348.9726 -5.7095,-36.62 -33.7623,-71.8966 -72.043,-77.3438 -4.9263,-0.582 -9.8845,-0.7811 -14.8437,-0.8144 -1.6531,-0.011 -3.3072,-4e-4 -4.959,0.014 -106.4744,0.1241 -212.9473,0.1609 -319.4219,0.17 l 0,-40.209 -460.1797,0 z"
       id="rect4699-8"
       inkscape:connector-curvature="0" />
    <rect
       style="opacity:1;fill:#ff0000;fill-opacity:1;fill-rule:evenodd;stroke:#000000;stroke-width:3.38541865;stroke-linecap:square;stroke-linejoin:bevel;stroke-miterlimit:22.92558479;stroke-dasharray:none;stroke-dashoffset:0;stroke-opacity:1"
       id="rect5270"
       width="37.36261"
       height="793.8587"
       x="5996.3145"
       y="-4445.5444" />
    <path
       style="opacity:1;fill:#0000ff;fill-opacity:1;fill-rule:evenodd;stroke:#000000;stroke-width:3.21150208;stroke-linecap:square;stroke-linejoin:bevel;stroke-miterlimit:22.92558479;stroke-dasharray:none;stroke-dashoffset:0;stroke-opacity:1"
       d="m 680.52032,-1195.3237 0,40.0293 -85.3164,0 -69.3516,800.81645 -37.3633,0 69.3536,-800.81645 -66.2696,0 -7.8222,0 c -30.3827,0 -54.7001,22.3008 -63.3907,54.1875 -4.3839,10.5159 -7.2209,22.0708 -8.0976,34.2168 L 310.17462,347.58065 c -3.5348,48.976 26.1463,88.4024 66.5488,88.4024 l 163.6367,0 6.0079,-2.7832 5.7714,-3.6016 5.2852,-4.2891 4.7129,-4.9101 4.0683,-5.4532 3.3614,-5.916 2.6074,-6.2851 1.8086,-6.5606 0.9844,-6.7343 103.5332,-1242.35752 0.9824,-6.7343 1.8066,-6.5586 2.6075,-6.2871 3.3652,-5.918 4.0683,-5.4531 4.7129,-4.9102 5.2813,-4.2871 5.7715,-3.6035 6.1738,-2.8594 6.4805,-2.0762 6.6875,-1.2578 6.7929,-0.4219 0.002,0 354.82808,0 6.791,0.4219 6.6895,1.2578 6.4785,2.0762 6.1758,2.8594 5.7734,3.6035 5.2832,4.2871 4.711,4.9121 4.0703,5.4531 3.3652,5.9161 2.6055,6.2871 1.8105,6.5586 0.9844,6.7343 103.5293,1242.35752 0.9844,6.7343 1.8086,6.5606 2.6074,6.2851 3.3633,5.916 4.0683,5.4551 4.7149,4.9082 5.2832,4.2891 5.7715,3.6035 6.0078,2.7813 163.6347,0 c 40.4026,0 70.0816,-39.4264 66.5469,-88.4024 L 1409.032,-1066.8901 c -0.8768,-12.149 -3.7138,-23.7067 -8.0996,-34.2246 -8.6925,-31.8826 -33.0064,-54.1797 -63.3867,-54.1797 l -7.8223,0 -52.8554,0 69.3515,800.81645 -37.3613,0 -69.3535,-800.81645 -98.7324,0 0,-40.0293 -460.25198,0 z"
       id="rect5474"
       inkscape:connector-curvature="0" />
    <rect
       style="opacity:1;fill:#ff0000;fill-opacity:1;fill-rule:evenodd;stroke:#000000;stroke-width:3.54299998;stroke-linecap:square;stroke-linejoin:bevel;stroke-miterlimit:22.92558479;stroke-dasharray:none;stroke-dashoffset:0;stroke-opacity:1"
       id="rect5538-1-6"
       width="460.62991"
       height="40.748032"
       x="715.79462"
       y="-4199.0215" />
    <rect
       style="opacity:1;fill:#ff0000;fill-opacity:1;fill-rule:evenodd;stroke:#000000;stroke-width:3.54299998;stroke-linecap:square;stroke-linejoin:bevel;stroke-miterlimit:22.92558479;stroke-dasharray:none;stroke-dashoffset:0;stroke-opacity:1"
       id="rect5538-1-6-5"
       width="460.62991"
       height="40.748032"
       x="715.79462"
       y="-3279.2056" />
    <path
       style="opacity:1;fill:#0000ff;fill-opacity:1;fill-rule:evenodd;stroke:#000000;stroke-width:3.03630257;stroke-linecap:square;stroke-linejoin:bevel;stroke-miterlimit:22.92558479;stroke-dasharray:none;stroke-dashoffset:0;stroke-opacity:1"
       d="m 4156.6853,-3020.7271 0,40.1816 c -108.9861,0 -217.9731,0.029 -326.9589,0.1445 -22.4279,-1.6577 -43.6887,10.0436 -58.7207,25.7618 -16.4066,17.0444 -24.5811,40.1681 -26.5606,63.3457 -4.0987,54.8168 -8.0092,109.7851 -12.3203,164.6424 -31.1208,419.7465 -63.4279,839.4178 -93.8067,1259.2111 0.3758,29.7305 17.0683,61.4941 46.2208,73.1113 19.887,7.0992 40.9746,4.6011 61.8398,4.2207 l 69.2187,-791.1778 37.3633,0 -69.248,791.5118 c 29.5283,0.1031 59.0849,0.5222 88.539,-0.6348 15.7482,-8.0572 26.9507,-23.0967 34.0743,-38.8144 7.6615,-23.1016 4.8409,-47.7273 8.5722,-71.625 33.2694,-394.2368 65.89,-788.5277 99.6328,-1182.7247 4.6722,-25.3307 31.9525,-42.8548 57.1973,-38.9024 215.7167,0.3273 431.4567,-0.6858 647.1582,0.5488 25.0865,3.4266 43.6701,28.4025 41.9883,53.0547 34.6482,410.1002 68.4575,820.2839 103.7031,1230.3263 4.4882,21.4302 21.1092,38.7681 40.5703,48.1348 14.735,2.6895 29.759,-0.3733 44.6153,0.7031 13.0514,-0.1061 26.1219,-0.013 39.1953,0.086 l -69.2617,-791.664 37.3632,0 69.2715,791.7754 c 17.8218,-0.091 35.6238,-0.4988 53.3633,-1.75 33.723,-7.7761 56.0441,-42.3218 55.5117,-75.4571 0.4035,-29.0295 -4.6696,-57.8093 -5.6269,-86.8535 -33.9047,-449.6497 -66.8599,-899.3787 -101.4473,-1348.9727 -5.7095,-36.6199 -33.7623,-71.8965 -72.043,-77.3437 -4.9263,-0.582 -9.8845,-0.7811 -14.8437,-0.8144 -1.6531,-0.011 -3.3072,-4e-4 -4.959,0.014 -106.4744,0.1241 -212.9473,0.1609 -319.4219,0.17 l 0,-40.209 -460.1797,0 z"
       id="rect4699-8-4"
       inkscape:connector-curvature="0" />
    <path
       style="opacity:1;fill:#0000ff;fill-opacity:1;fill-rule:evenodd;stroke:#000000;stroke-width:3.21150208;stroke-linecap:square;stroke-linejoin:bevel;stroke-miterlimit:22.92558479;stroke-dasharray:none;stroke-dashoffset:0;stroke-opacity:1"
       d="m 2257.2758,-1195.3235 0,40.0293 -85.3164,0 -69.3516,800.81625 -37.3633,0 69.3536,-800.81625 -66.2696,0 -7.8222,0 c -30.3827,0 -54.7001,22.3008 -63.3907,54.1875 -4.3839,10.5159 -7.2209,22.0708 -8.0976,34.2168 L 1886.9301,347.58065 c -3.5348,48.976 26.1463,88.4024 66.5488,88.4024 l 163.6367,0 6.0079,-2.7832 5.7714,-3.6016 5.2852,-4.2891 4.7129,-4.9101 4.0683,-5.4532 3.3614,-5.916 2.6074,-6.2851 1.8086,-6.5606 0.9844,-6.7343 103.5332,-1242.35732 0.9824,-6.7343 1.8066,-6.5586 2.6075,-6.2871 3.3652,-5.918 4.0683,-5.4531 4.7129,-4.9102 5.2813,-4.2871 5.7715,-3.6035 6.1738,-2.8594 6.4805,-2.0762 6.6875,-1.2578 6.7929,-0.4219 0,0 354.8281,0 6.791,0.4219 6.6895,1.2578 6.4785,2.0762 6.1758,2.8594 5.7734,3.6035 5.2832,4.2871 4.711,4.9121 4.0703,5.4531 3.3652,5.9161 2.6055,6.2871 1.8105,6.5586 0.9844,6.7343 103.5293,1242.35732 0.9844,6.7343 1.8086,6.5606 2.6074,6.2851 3.3633,5.916 4.0683,5.4551 4.7149,4.9082 5.2832,4.2891 5.7715,3.6035 6.0078,2.7813 163.6347,0 c 40.4026,0 70.0816,-39.4264 66.5469,-88.4024 L 2985.7875,-1066.8899 c -0.8768,-12.149 -3.7138,-23.7067 -8.0996,-34.2246 -8.6925,-31.8826 -33.0064,-54.1797 -63.3867,-54.1797 l -7.8223,0 -52.8554,0 69.3515,800.81625 -37.3613,0 -69.3535,-800.81625 -98.7324,0 0,-40.0293 -460.252,0 z"
       id="rect5474-2"
       inkscape:connector-curvature="0" />
  </g>
</svg>
