<?xml version="1.0" encoding="UTF-8" standalone="no"?>
<!-- Created with Inkscape (http://www.inkscape.org/) -->

<svg
   xmlns:dc="http://purl.org/dc/elements/1.1/"
   xmlns:cc="http://creativecommons.org/ns#"
   xmlns:rdf="http://www.w3.org/1999/02/22-rdf-syntax-ns#"
   xmlns:svg="http://www.w3.org/2000/svg"
   xmlns="http://www.w3.org/2000/svg"
   xmlns:sodipodi="http://sodipodi.sourceforge.net/DTD/sodipodi-0.dtd"
   xmlns:inkscape="http://www.inkscape.org/namespaces/inkscape"
   width="297mm"
   height="210mm"
   viewBox="0 0 1052.3622 744.09448"
   id="svg2"
   version="1.1"
   inkscape:version="0.91 r13725"
   sodipodi:docname="stickman.svg">
  <defs
     id="defs4" />
  <sodipodi:namedview
     id="base"
     pagecolor="#ffffff"
     bordercolor="#666666"
     borderopacity="1.0"
     inkscape:pageopacity="0.0"
     inkscape:pageshadow="2"
     inkscape:zoom="0.65851852"
     inkscape:cx="526.1811"
     inkscape:cy="372.04724"
     inkscape:document-units="px"
     inkscape:current-layer="layer1"
     showgrid="false"
     inkscape:window-width="1280"
     inkscape:window-height="659"
     inkscape:window-x="-8"
     inkscape:window-y="-8"
     inkscape:window-maximized="1" />
  <metadata
     id="metadata7">
    <rdf:RDF>
      <cc:Work
         rdf:about="">
        <dc:format>image/svg+xml</dc:format>
        <dc:type
           rdf:resource="http://purl.org/dc/dcmitype/StillImage" />
        <dc:title></dc:title>
      </cc:Work>
    </rdf:RDF>
  </metadata>
  <g
     inkscape:label="Layer 1"
     inkscape:groupmode="layer"
     id="layer1"
     transform="translate(0,-308.26772)">
    <path
       style="fill:#000000"
       d="M 541.04358,862.99859 C 514.85798,852.819 507.40882,831.75885 507.40882,767.90688 l 0,-57.76366 -20.69831,-4.38586 c -25.61102,-5.42683 -119.93972,-2.60391 -135.83267,4.06495 -26.62996,11.17426 -10.29733,39.62451 48.00228,83.61641 35.4416,26.74359 40.79476,32.92717 39.28498,45.37925 -0.75474,6.22504 -98.93007,7.33178 -98.93007,1.11523 0,-5.29661 27.86908,-16.28534 41.30208,-16.28534 20.43586,0 18.07521,-11.91259 -6.27445,-31.66311 -34.5033,-27.9864 -50.55136,-48.85549 -50.55136,-65.73769 0,-19.29172 11.70812,-26.96807 49.58239,-32.5084 29.76107,-4.35356 112.4233,-2.77156 134.88018,2.58129 9.96206,2.37457 11.71583,0.45629 16.91698,-18.50351 6.57176,-23.9559 3.40165,-43.56785 -10.55051,-65.27144 -12.27766,-19.09884 -28.05325,-27.60018 -50.97315,-27.46914 -15.93658,0.0913 -19.40968,2.0165 -27.36437,15.17011 -12.90395,21.33757 -31.65236,30.54879 -66.14916,32.49956 -36.34967,2.0555 -56.73399,-5.47648 -75.80988,-28.01167 -11.86755,-14.01967 -15.9358,-16.10187 -27.82722,-14.24259 -7.66016,1.19769 -14.9535,1.37559 -16.20744,0.39525 -2.77627,-2.17039 3.76105,-48.25231 11.1691,-78.73156 2.97426,-12.23722 5.99104,-39.54341 6.70388,-60.68043 0.75417,-22.36076 3.41369,-38.10233 6.36018,-37.64511 2.78525,0.43224 8.72761,12.26493 13.20527,26.29486 4.47771,14.02996 13.28778,34.43729 19.57796,45.34964 13.37918,23.21045 11.20925,27.77154 -6.88873,14.47965 -20.0168,-14.70117 -25.60116,-6.43578 -26.82481,39.70313 -0.66586,25.10649 0.42051,34.87422 3.01525,27.11066 15.88252,-47.52117 62.00093,-70.25516 114.73977,-56.56077 26.45331,6.86899 39.38972,17.28606 52.74017,42.46909 l 7.47052,14.09168 3.65474,-12.6394 c 5.0835,-17.58053 24.04539,-30.08824 49.69122,-32.7774 17.82692,-1.86931 24.40721,-5.17988 36.73065,-18.47948 8.25718,-8.91122 15.01302,-18.55225 15.01302,-21.42456 0,-10.46118 10.50771,-9.94586 15.71959,0.77092 3.78344,7.77968 3.56093,17.25635 -0.75972,32.34979 -5.83907,20.39785 -6.98034,21.46172 -25.67162,23.93049 -10.89935,1.4396 -24.16445,0.65751 -29.95728,-1.76618 -15.14438,-6.3363 -20.44973,-5.48069 -34.59756,5.57976 -15.65141,12.23589 -17.29849,30.5241 -2.74911,30.5241 14.818,0 41.97597,19.69392 52.7655,38.26359 12.65516,21.78046 12.41137,59.44372 -0.62269,96.21461 -18.7311,52.84298 -10.11795,133.92347 15.35898,144.58287 23.37266,9.77896 52.80073,-12.0491 92.81127,-68.84207 29.73325,-42.20484 38.76256,-44.21759 53.81553,-11.99625 11.68217,25.00607 13.32955,53.53872 3.61927,62.68564 -3.71821,3.50251 -14.97685,6.08552 -26.52501,6.08552 -17.36759,0 -20.06044,-1.22351 -20.03287,-9.10206 0.0166,-5.00615 3.5104,-14.31631 7.76187,-20.68925 8.21661,-12.31657 10.30035,-26.84648 3.84906,-26.83962 -2.13449,0.002 -10.63003,9.39809 -18.87897,20.87964 -19.85962,27.64241 -48.37386,51.894 -68.92265,58.61921 -19.84505,6.49491 -16.65134,6.46533 -32.50732,0.3013 z"
       id="path4566"
       inkscape:connector-curvature="0" />
  </g>
</svg>
