<?xml version="1.0" encoding="UTF-8" standalone="no"?>
<!-- Created with Inkscape (http://www.inkscape.org/) -->

<svg
   xmlns:dc="http://purl.org/dc/elements/1.1/"
   xmlns:cc="http://creativecommons.org/ns#"
   xmlns:rdf="http://www.w3.org/1999/02/22-rdf-syntax-ns#"
   xmlns:svg="http://www.w3.org/2000/svg"
   xmlns="http://www.w3.org/2000/svg"
   xmlns:sodipodi="http://sodipodi.sourceforge.net/DTD/sodipodi-0.dtd"
   xmlns:inkscape="http://www.inkscape.org/namespaces/inkscape"
   sodipodi:docname="tissuebox_v3.svg"
   width="423.73193mm"
   height="178.43161mm"
   viewBox="0 0 1501.4124 632.23799"
   id="svg2"
   version="1.1"
   inkscape:version="0.91 r13725">
  <sodipodi:namedview
     fit-margin-bottom="5"
     fit-margin-right="5"
     fit-margin-left="5"
     fit-margin-top="5"
     id="base"
     pagecolor="#ffffff"
     bordercolor="#666666"
     borderopacity="1.0"
     inkscape:pageopacity="0.0"
     inkscape:pageshadow="2"
     inkscape:zoom="0.46561915"
     inkscape:cx="713.48171"
     inkscape:cy="273.6202"
     inkscape:document-units="px"
     inkscape:current-layer="svg2"
     showgrid="false"
     inkscape:window-width="1280"
     inkscape:window-height="659"
     inkscape:window-x="-8"
     inkscape:window-y="-8"
     inkscape:window-maximized="1" />
  <defs
     id="defs4" />
  <metadata
     id="metadata7">
    <rdf:RDF>
      <cc:Work
         rdf:about="">
        <dc:format>image/svg+xml</dc:format>
        <dc:type
           rdf:resource="http://purl.org/dc/dcmitype/StillImage" />
        <dc:title></dc:title>
      </cc:Work>
    </rdf:RDF>
  </metadata>
  <g
     id="layer1"
     inkscape:groupmode="layer"
     inkscape:label="Layer 1"
     transform="translate(16.266735,14.673225)" />
  <g
     id="g3389"
     inkscape:groupmode="layer"
     inkscape:label="newlayer"
     transform="translate(16.266735,14.673225)" />
  <g
     inkscape:label="newlayer"
     inkscape:groupmode="layer"
     id="g3514"
     transform="translate(16.266735,14.673225)" />
  <g
     id="g3600"
     inkscape:groupmode="layer"
     inkscape:label="newlayer"
     transform="translate(16.266735,14.673225)" />
  <g
     inkscape:label="newlayer"
     inkscape:groupmode="layer"
     id="g4783" />
  <g
     id="g4901"
     inkscape:groupmode="layer"
     inkscape:label="newlayer" />
  <path
     id="path4905"
     d="M 588.188976376,3.5433070866 L 588.188976376,42.2064244807 L 580.88976398,42.2064244807 L 580.88976398,80.8429670722 L 588.188976376,80.8429670722 L 588.188976376,119.514942734 L 580.88976398,119.514942734 L 580.88976398,158.151485325 L 588.188976376,158.151485325 L 588.188976376,196.823460987 L 580.88976398,196.823460987 L 580.88976398,235.460003578 L 588.188976376,235.460003578 L 588.188976376,274.13197924 L 580.88976398,274.13197924 L 580.88976398,312.768521831 L 588.188976376,312.768521831 L 588.188976376,351.440497493 L 580.88976398,351.440497493 L 580.88976398,390.077040085 L 588.188976376,390.077040085 L 588.188976376,428.740157479 "
     style="stroke:#000000;fill:none"
     inkscape:label="part" />
  <path
     id="path4911"
     d="M 591.732283462,3.5433070866 L 630.717519682,3.5433070866 L 630.717519682,10.8425194822 L 669.6761811,10.8425194822 L 669.6761811,3.5433070866 L 708.670275588,3.5433070866 L 708.670275588,10.8425194822 L 747.628937005,10.8425194822 L 747.628937005,3.5433070866 L 786.623031493,3.5433070866 L 786.623031493,10.8425194822 L 825.58169291,10.8425194822 L 825.58169291,3.5433070866 L 864.575787398,3.5433070866 L 864.575787398,10.8425194822 L 903.534448815,10.8425194822 L 903.534448815,3.5433070866 L 942.528543303,3.5433070866 L 942.528543303,10.8425194822 L 981.487204721,10.8425194822 L 981.487204721,3.5433070866 L 1020.48129921,3.5433070866 L 1020.48129921,10.8425194822 L 1059.43996063,10.8425194822 L 1059.43996063,3.5433070866 L 1098.43405511,3.5433070866 L 1098.43405511,10.8425194822 L 1137.39271653,10.8425194822 L 1137.39271653,3.5433070866 L 1176.37795275,3.5433070866 "
     style="stroke:#000000;fill:none"
     inkscape:label="part" />
  <path
     id="path4913"
     d="M 1176.37795275,3.5433070866 L 1176.37795275,42.2064244807 L 1169.07874036,42.2064244807 L 1169.07874036,80.8429670722 L 1176.37795275,80.8429670722 L 1176.37795275,119.514942734 L 1169.07874036,119.514942734 L 1169.07874036,158.151485325 L 1176.37795275,158.151485325 L 1176.37795275,196.823460987 L 1169.07874036,196.823460987 L 1169.07874036,235.460003578 L 1176.37795275,235.460003578 L 1176.37795275,274.13197924 L 1169.07874036,274.13197924 L 1169.07874036,312.768521831 L 1176.37795275,312.768521831 L 1176.37795275,351.440497493 L 1169.07874036,351.440497493 L 1169.07874036,390.077040085 L 1176.37795275,390.077040085 L 1176.37795275,428.740157479 "
     style="stroke:#000000;fill:none"
     inkscape:label="part" />
  <path
     id="path4915"
     d="M 1176.37795275,428.740157479 L 1137.39271653,428.740157479 L 1137.39271653,421.440945083 L 1098.43405511,421.440945083 L 1098.43405511,428.740157479 L 1059.43996063,428.740157479 L 1059.43996063,421.440945083 L 1020.48129921,421.440945083 L 1020.48129921,428.740157479 L 981.487204721,428.740157479 L 981.487204721,421.440945083 L 942.528543303,421.440945083 L 942.528543303,428.740157479 L 903.534448815,428.740157479 L 903.534448815,421.440945083 L 864.575787398,421.440945083 L 864.575787398,428.740157479 L 825.58169291,428.740157479 L 825.58169291,421.440945083 L 786.623031493,421.440945083 L 786.623031493,428.740157479 L 747.628937005,428.740157479 L 747.628937005,421.440945083 L 708.670275588,421.440945083 L 708.670275588,428.740157479 L 669.6761811,428.740157479 L 669.6761811,421.440945083 L 630.717519682,421.440945083 L 630.717519682,428.740157479 L 591.732283462,428.740157479 "
     style="stroke:#000000;fill:none"
     inkscape:label="part" />
  <g
     id="g4985">
    <path
       inkscape:label="part"
       style="stroke:#000000;fill:none"
       d="M 3.5433070866,3.5433070866 L 42.5285433067,3.5433070866 L 42.5285433067,10.8425194822 L 81.4872047243,10.8425194822 L 81.4872047243,3.5433070866 L 120.481299212,3.5433070866 L 120.481299212,10.8425194822 L 159.439960629,10.8425194822 L 159.439960629,3.5433070866 L 198.434055117,3.5433070866 L 198.434055117,10.8425194822 L 237.392716535,10.8425194822 L 237.392716535,3.5433070866 L 276.386811022,3.5433070866 L 276.386811022,10.8425194822 L 315.34547244,10.8425194822 L 315.34547244,3.5433070866 L 354.339566928,3.5433070866 L 354.339566928,10.8425194822 L 393.298228345,10.8425194822 L 393.298228345,3.5433070866 L 432.292322833,3.5433070866 L 432.292322833,10.8425194822 L 471.25098425,10.8425194822 L 471.25098425,3.5433070866 L 510.245078738,3.5433070866 L 510.245078738,10.8425194822 L 549.203740155,10.8425194822 L 549.203740155,3.5433070866 L 588.188976376,3.5433070866 "
       id="path4903" />
    <path
       inkscape:label="part"
       style="stroke:#000000;fill:none"
       d="M 588.188976376,428.740157479 L 549.203740155,428.740157479 L 549.203740155,421.440945083 L 510.245078738,421.440945083 L 510.245078738,428.740157479 L 471.25098425,428.740157479 L 471.25098425,421.440945083 L 432.292322833,421.440945083 L 432.292322833,428.740157479 L 393.298228345,428.740157479 L 393.298228345,421.440945083 L 354.339566928,421.440945083 L 354.339566928,428.740157479 L 315.34547244,428.740157479 L 315.34547244,421.440945083 L 276.386811022,421.440945083 L 276.386811022,428.740157479 L 237.392716535,428.740157479 L 237.392716535,421.440945083 L 198.434055117,421.440945083 L 198.434055117,428.740157479 L 159.439960629,428.740157479 L 159.439960629,421.440945083 L 120.481299212,421.440945083 L 120.481299212,428.740157479 L 81.4872047243,428.740157479 L 81.4872047243,421.440945083 L 42.5285433067,421.440945083 L 42.5285433067,428.740157479 L 3.5433070866,428.740157479 "
       id="path4907" />
    <path
       inkscape:label="part"
       style="stroke:#000000;fill:none"
       d="M 3.5433070866,428.740157479 L 3.5433070866,390.077040085 L 10.8425194822,390.077040085 L 10.8425194822,351.440497493 L 3.5433070866,351.440497493 L 3.5433070866,312.768521831 L 10.8425194822,312.768521831 L 10.8425194822,274.13197924 L 3.5433070866,274.13197924 L 3.5433070866,235.460003578 L 10.8425194822,235.460003578 L 10.8425194822,196.823460987 L 3.5433070866,196.823460987 L 3.5433070866,158.151485325 L 10.8425194822,158.151485325 L 10.8425194822,119.514942734 L 3.5433070866,119.514942734 L 3.5433070866,80.8429670722 L 10.8425194822,80.8429670722 L 10.8425194822,42.2064244807 L 3.5433070866,42.2064244807 L 3.5433070866,3.5433070866 "
       id="path4909" />
    <path
       inkscape:label="part"
       style="stroke:#000000;fill:none"
       d="M 591.732283462,428.740157479 L 591.732283462,390.077040085 L 599.031495858,390.077040085 L 599.031495858,351.440497493 L 591.732283462,351.440497493 L 591.732283462,312.768521831 L 599.031495858,312.768521831 L 599.031495858,274.13197924 L 591.732283462,274.13197924 L 591.732283462,235.460003578 L 599.031495858,235.460003578 L 599.031495858,196.823460987 L 591.732283462,196.823460987 L 591.732283462,158.151485325 L 599.031495858,158.151485325 L 599.031495858,119.514942734 L 591.732283462,119.514942734 L 591.732283462,80.8429670722 L 599.031495858,80.8429670722 L 599.031495858,42.2064244807 L 591.732283462,42.2064244807 L 591.732283462,3.5433070866 "
       id="path4917" />
  </g>
  <path
     id="path4919"
     d="M 1187.22047223,3.5433070866 L 1227.17421259,3.5433070866 L 1227.17421259,10.8425194822 L 1274.40059055,10.8425194822 L 1274.40059055,3.5433070866 L 1314.35433091,3.5433070866 "
     style="stroke:#000000;fill:none"
     inkscape:label="part" />
  <path
     id="path4921"
     d="M 1314.35433091,3.5433070866 L 1314.35433091,42.1887079456 L 1321.6535433,42.1887079456 L 1321.6535433,80.8606836072 L 1314.35433091,80.8606836072 L 1314.35433091,119.497226199 L 1321.6535433,119.497226199 L 1321.6535433,158.16920186 L 1314.35433091,158.16920186 L 1314.35433091,196.805744452 L 1321.6535433,196.805744452 L 1321.6535433,235.477720113 L 1314.35433091,235.477720113 L 1314.35433091,274.114262705 L 1321.6535433,274.114262705 L 1321.6535433,312.786238366 L 1314.35433091,312.786238366 L 1314.35433091,351.422780958 L 1321.6535433,351.422780958 L 1321.6535433,390.09475662 L 1314.35433091,390.09475662 L 1314.35433091,428.740157479 "
     style="stroke:#000000;fill:none"
     inkscape:label="part" />
  <path
     id="path4923"
     d="M 1314.35433091,428.740157479 L 1274.40059055,428.740157479 L 1274.40059055,421.440945083 L 1227.17421259,421.440945083 L 1227.17421259,428.740157479 L 1187.22047223,428.740157479 "
     style="stroke:#000000;fill:none"
     inkscape:label="part" />
  <path
     id="path4925"
     d="M 1187.22047223,428.740157479 L 1187.22047223,390.09475662 L 1179.92125984,390.09475662 L 1179.92125984,351.422780958 L 1187.22047223,351.422780958 L 1187.22047223,312.786238366 L 1179.92125984,312.786238366 L 1179.92125984,274.114262705 L 1187.22047223,274.114262705 L 1187.22047223,235.477720113 L 1179.92125984,235.477720113 L 1179.92125984,196.805744452 L 1187.22047223,196.805744452 L 1187.22047223,158.16920186 L 1179.92125984,158.16920186 L 1179.92125984,119.497226199 L 1187.22047223,119.497226199 L 1187.22047223,80.8606836072 L 1179.92125984,80.8606836072 L 1179.92125984,42.1887079456 L 1187.22047223,42.1887079456 L 1187.22047223,3.5433070866 "
     style="stroke:#000000;fill:none"
     inkscape:label="part" />
  <path
     id="path4927"
     d="M 1332.49606278,3.5433070866 L 1372.44980314,3.5433070866 L 1372.44980314,10.8425194822 L 1419.6761811,10.8425194822 L 1419.6761811,3.5433070866 L 1459.62992146,3.5433070866 "
     style="stroke:#000000;fill:none"
     inkscape:label="part" />
  <path
     id="path4929"
     d="M 1459.62992146,3.5433070866 L 1459.62992146,42.1887079456 L 1466.92913385,42.1887079456 L 1466.92913385,80.8606836072 L 1459.62992146,80.8606836072 L 1459.62992146,119.497226199 L 1466.92913385,119.497226199 L 1466.92913385,158.16920186 L 1459.62992146,158.16920186 L 1459.62992146,196.805744452 L 1466.92913385,196.805744452 L 1466.92913385,235.477720113 L 1459.62992146,235.477720113 L 1459.62992146,274.114262705 L 1466.92913385,274.114262705 L 1466.92913385,312.786238366 L 1459.62992146,312.786238366 L 1459.62992146,351.422780958 L 1466.92913385,351.422780958 L 1466.92913385,390.09475662 L 1459.62992146,390.09475662 L 1459.62992146,428.740157479 "
     style="stroke:#000000;fill:none"
     inkscape:label="part" />
  <path
     id="path4931"
     d="M 1459.62992146,428.740157479 L 1419.6761811,428.740157479 L 1419.6761811,421.440945083 L 1372.44980314,421.440945083 L 1372.44980314,428.740157479 L 1332.49606278,428.740157479 "
     style="stroke:#000000;fill:none"
     inkscape:label="part" />
  <path
     id="path4933"
     d="M 1332.49606278,428.740157479 L 1332.49606278,390.09475662 L 1325.19685039,390.09475662 L 1325.19685039,351.422780958 L 1332.49606278,351.422780958 L 1332.49606278,312.786238366 L 1325.19685039,312.786238366 L 1325.19685039,274.114262705 L 1332.49606278,274.114262705 L 1332.49606278,235.477720113 L 1325.19685039,235.477720113 L 1325.19685039,196.805744452 L 1332.49606278,196.805744452 L 1332.49606278,158.16920186 L 1325.19685039,158.16920186 L 1325.19685039,119.497226199 L 1332.49606278,119.497226199 L 1332.49606278,80.8606836072 L 1325.19685039,80.8606836072 L 1325.19685039,42.1887079456 L 1332.49606278,42.1887079456 L 1332.49606278,3.5433070866 "
     style="stroke:#000000;fill:none"
     inkscape:label="part" />
  <path
     id="path4935"
     d="m 10.907601,464.00257 31.668307,0 0,-7.29921 38.994094,0 0,7.29921 38.958658,0 0,-7.29921 38.9941,0 0,7.29921 38.95866,0 0,-7.29921 38.99409,0 0,7.29921 38.95867,0 0,-7.29921 38.99409,0 0,7.29921 38.95866,0 0,-7.29921 38.9941,0 0,7.29921 38.95866,0 0,-7.29921 38.99409,0 0,7.29921 38.95866,0 0,-7.29921 38.9941,0 0,7.29921 31.66831,0"
     style="fill:none;stroke:#000000"
     inkscape:label="part"
     inkscape:connector-curvature="0" />
  <path
     id="path4937"
     d="m 580.95485,464.00257 0,39.93602 7.29921,0 0,47.26182 -7.29921,0 0,39.93602"
     style="fill:none;stroke:#000000"
     inkscape:label="part"
     inkscape:connector-curvature="0" />
  <path
     id="path4939"
     d="m 580.95485,591.13643 -31.66831,0 0,7.29921 -38.9941,0 0,-7.29921 -38.95866,0 0,7.29921 -38.99409,0 0,-7.29921 -38.95866,0 0,7.29921 -38.9941,0 0,-7.29921 -38.95866,0 0,7.29921 -38.99409,0 0,-7.29921 -38.95867,0 0,7.29921 -38.99409,0 0,-7.29921 -38.95866,0 0,7.29921 -38.9941,0 0,-7.29921 -38.958658,0 0,7.29921 -38.994094,0 0,-7.29921 -31.668307,0"
     style="fill:none;stroke:#000000"
     inkscape:label="part"
     inkscape:connector-curvature="0" />
  <path
     id="path4941"
     d="m 10.907601,591.13643 0,-39.93602 -7.2992128,0 0,-47.26182 7.2992128,0 0,-39.93602"
     style="fill:none;stroke:#000000"
     inkscape:label="part"
     inkscape:connector-curvature="0" />
  <path
     id="path4943"
     d="m 599.09658,464.00257 31.6683,0 0,-7.29921 38.9941,0 0,7.29921 38.95866,0 0,-7.29921 38.99409,0 0,7.29921 38.95867,0 0,-7.29921 38.99409,0 0,7.29921 38.95866,0 0,-7.29921 38.9941,0 0,7.29921 38.95866,0 0,-7.29921 38.99409,0 0,7.29921 38.9587,0 0,-7.29921 38.9941,0 0,7.29921 38.9586,0 0,-7.29921 38.9941,0 0,7.29921 31.6683,0"
     style="fill:none;stroke:#000000"
     inkscape:label="part"
     inkscape:connector-curvature="0" />
  <path
     id="path4945"
     d="m 1169.1438,464.00257 0,39.93602 7.2992,0 0,47.26182 -7.2992,0 0,39.93602"
     style="fill:none;stroke:#000000"
     inkscape:label="part"
     inkscape:connector-curvature="0" />
  <path
     id="path4947"
     d="m 1169.1438,591.13643 -31.6683,0 0,7.29921 -38.9941,0 0,-7.29921 -38.9586,0 0,7.29921 -38.9941,0 0,-7.29921 -38.9587,0 0,7.29921 -38.99409,0 0,-7.29921 -38.95866,0 0,7.29921 -38.9941,0 0,-7.29921 -38.95866,0 0,7.29921 -38.99409,0 0,-7.29921 -38.95867,0 0,7.29921 -38.99409,0 0,-7.29921 -38.95866,0 0,7.29921 -38.9941,0 0,-7.29921 -31.6683,0"
     style="fill:none;stroke:#000000"
     inkscape:label="part"
     inkscape:connector-curvature="0" />
  <path
     id="path4949"
     d="m 599.09658,591.13643 0,-39.93602 -7.29922,0 0,-47.26182 7.29922,0 0,-39.93602"
     style="fill:none;stroke:#000000"
     inkscape:label="part"
     inkscape:connector-curvature="0" />
  <rect
     style="fill:none;stroke:#000000;stroke-width:0.35433072;stroke-miterlimit:4;stroke-dasharray:none;stroke-opacity:1"
     id="rect4983"
     width="531.49603"
     height="141.73228"
     x="35.539387"
     y="145.27559" />
</svg>
